<?xml version="1.0"?>
<svg xmlns="http://www.w3.org/2000/svg" id="Outline" viewBox="0 0 512 512">
    <circle cx="184" cy="176" r="8"/><circle cx="104" cy="176" r="8"/><path d="M136,200h16a8,8,0,0,0,0-16h-8v-8a8,8,0,0,0-16,0v16A8,8,0,0,0,136,200Z"/><path d="M36.566,215.75a111.628,111.628,0,0,0,18.306,36.111A40.046,40.046,0,0,0,32,288V456a24.028,24.028,0,0,0,24,24H248a24.027,24.027,0,0,0,24-24V440a23.889,23.889,0,0,0-1.376-8h43.86l-2.468,39.5A8,8,0,0,0,320,480h96a8,8,0,0,0,7.984-8.5L421.516,432H470a26.029,26.029,0,0,0,26-26V266a26.029,26.029,0,0,0-26-26H250a25.97,25.97,0,0,0-20.7,10.286A40.068,40.068,0,0,0,216,248H191.55a82.333,82.333,0,0,0,25.437-32H248a24.028,24.028,0,0,0,24-24V160a24.039,24.039,0,0,0-16.206-22.694,111.994,111.994,0,0,0-223.588,0A24.039,24.039,0,0,0,16,160v32A24.034,24.034,0,0,0,36.566,215.75ZM194.432,104.668a63.673,63.673,0,0,1,13,30.906c-17.88-1.781-29.162-8.889-35.224-14.152A180.9,180.9,0,0,0,194.432,104.668ZM80.549,135.755a63.932,63.932,0,0,1,102.5-42.409C171.967,103,133.691,132.787,80.549,135.755Zm6.829,104.26A82.308,82.308,0,0,0,96.45,248H72.422a95.731,95.731,0,0,1-18.964-32H71.013A81.833,81.833,0,0,0,87.378,240.015ZM155.056,264,144,286.111,132.944,264ZM256,456a8.009,8.009,0,0,1-8,8H224V432h24a8.009,8.009,0,0,1,8,8Zm-6-40a10.011,10.011,0,0,1-10-10v-6h76.484l-1,16Zm78.516,48,7-112h64.968l7,112ZM470,416H420.516l-1-16H480v6A10.011,10.011,0,0,1,470,416ZM250,256H470a10.011,10.011,0,0,1,10,10V384H418.516l-2.532-40.5A8,8,0,0,0,408,336H328a8,8,0,0,0-7.984,7.5L317.484,384H240V266A10.011,10.011,0,0,1,250,256Zm-25.984,9.381c0,.207-.016.411-.016.619V406a25.843,25.843,0,0,0,2,10H96V360a8,8,0,0,0-16,0v64a8,8,0,0,0,8,8H208v32H56a8.009,8.009,0,0,1-8-8V288a24.04,24.04,0,0,1,18.305-23.312,112.423,112.423,0,0,0,26,18.691A8,8,0,1,0,99.7,269.19,96.56,96.56,0,0,1,90.908,264h24.148l21.789,43.578a8,8,0,0,0,14.31,0L172.944,264H216A24.086,24.086,0,0,1,224.016,265.381ZM189.2,228.809a62.827,62.827,0,0,1-90.4,0A65.078,65.078,0,0,1,80,183V151.807c31.457-1.465,58.014-11.346,77.9-21.966,7.143,7.344,23.015,19.758,50.1,21.853V183A65.078,65.078,0,0,1,189.2,228.809ZM256,192a8.009,8.009,0,0,1-8,8H222.2A81.483,81.483,0,0,0,224,183V152h24a8.009,8.009,0,0,1,8,8ZM144,48a96.127,96.127,0,0,1,95.664,88H223.6a80,80,0,0,0-159.2,0H48.336A96.127,96.127,0,0,1,144,48ZM32,160a8.009,8.009,0,0,1,8-8H64v31a81.483,81.483,0,0,0,1.805,17H40a8.009,8.009,0,0,1-8-8Z"/><path d="M176,200a7.992,7.992,0,0,0-7.149,4.425l-.006,0,.053-.1c-.257.476-6.51,11.682-24.9,11.682s-24.641-11.206-24.9-11.682l.053.1-.006,0a7.993,7.993,0,1,0-14.3,7.15l-.006,0c.016.032.052.1.1.187l.047.088C106.333,214.344,116.823,232,144,232s37.667-17.656,39.011-20.147l.047-.088c.045-.086.081-.155.1-.187l-.006,0A7.987,7.987,0,0,0,176,200Z"/>
</svg>
