<svg id="Layer_5" enable-background="new 0 0 64 64" viewBox="0 0 64 64" xmlns="http://www.w3.org/2000/svg">
    <g><path d="m60 39h-4.014c.66-2.267 1.014-4.612 1.014-7 0-13.785-11.215-25-25-25-3.403 0-6.698.676-9.801 2h-5.57l2.262-4.456-1.783-.905-2.722 5.361h-.693l-2.757-7.351-1.873.702 2.494 6.649h-7.557c-1.654 0-3 1.346-3 3v14c0 1.654 1.346 3 3 3h2v1c0 .886.393 1.675 1.006 2.224.121 13.682 11.284 24.776 24.994 24.776 1.701 0 3.393-.18 5.049-.519.232 1.425 1.461 2.519 2.951 2.519h2v1c0 1.654 1.346 3 3 3h10c1.654 0 3-1.346 3-3v-1h2c1.654 0 3-1.346 3-3v-14c0-1.654-1.346-3-3-3zm-7.378 0 2.215-4.407c-.168 1.499-.483 2.971-.942 4.407zm-15.622 3v1h-13.737c-.734-3.011-1.181-6.414-1.252-10h19.969c-.039 2.048-.198 4.057-.476 6h-1.504c-1.654 0-3 1.346-3 3zm-27.975-9h9.975 1.012c.065 3.596.476 6.976 1.171 10h-9.377c-1.637-2.994-2.625-6.391-2.781-10zm12.975-4h2c1.654 0 3-1.346 3-3v-5h13.737c.734 3.011 1.181 6.414 1.252 10h-20.173c.112-.314.184-.648.184-1zm32.975 2h-10.987c-.065-3.596-.476-6.976-1.171-10h9.376c1.638 2.994 2.626 6.391 2.782 10zm-10.994 2h1.337l2.241 6h-4.035c.266-1.948.419-3.956.457-6zm5.713 6-2.241-6h7.505c-.021.489-.052.977-.104 1.462l-1.748-.879-2.723 5.417zm1.266-20h-8.658c-1.148-4.001-2.821-7.237-4.834-9.338 5.563 1.362 10.337 4.75 13.492 9.338zm-10.771 0h-13.189v-7c0-.878-.386-1.662-.989-2.211 1.939-.522 3.943-.789 5.989-.789 3.342 0 6.363 4.007 8.189 10zm-37.189 7v-14c0-.551.448-1 1-1h20c.552 0 1 .449 1 1v14c0 .551-.448 1-1 1h-20c-.552 0-1-.449-1-1zm17 3v1c0 .551-.448 1-1 1h-10c-.552 0-1-.449-1-1v-1zm-6.961 16h8.659c1.148 4.001 2.821 7.237 4.834 9.338-5.563-1.362-10.337-4.75-13.493-9.338zm10.772 0h13.189v9.443c-1.635.362-3.311.557-5 .557-3.342 0-6.363-4.007-8.189-10zm32.189 15c0 .552-.448 1-1 1h-10c-.552 0-1-.448-1-1v-1h12zm5-4c0 .552-.448 1-1 1h-20c-.552 0-1-.448-1-1v-14c0-.552.448-1 1-1h20c.552 0 1 .448 1 1z"/><path d="m41 55h18v-12h-18zm2-10h14v8h-14z"/><path d="m5 25h18v-12h-18zm2-10h14v8h-14z"/><path d="m51.293 11.293 1.414 1.414 6.293-6.293v2.586h2v-6h-6v2h2.586z"/><path d="m57 11v2h2.586l-4.293 4.293 1.414 1.414 4.293-4.293v2.586h2v-6z"/><path d="m46.707 8.707 4.293-4.293v2.586h2v-6h-6v2h2.586l-4.293 4.293z"/><path d="m12.707 52.707-1.414-1.414-6.293 6.293v-2.586h-2v6h6v-2h-2.586z"/><path d="m7 51h-2.586l4.293-4.293-1.414-1.414-4.293 4.293v-2.586h-2v6h6z"/><path d="m17.293 55.293-4.293 4.293v-2.586h-2v6h6v-2h-2.586l4.293-4.293z"/><path d="m24 35h2v2h-2z"/><path d="m32 35h2v2h-2z"/><path d="m28 35h2v2h-2z"/><path d="m46 27h2v2h-2z"/><path d="m50 27h2v2h-2z"/><path d="m31 15h2v2h-2z"/><path d="m35 15h2v2h-2z"/></g>
</svg>