<svg id="Capa_1" enable-background="new 0 0 511 511" height="512" viewBox="0 0 511 511" width="512" xmlns="http://www.w3.org/2000/svg"><g><circle cx="255.5" cy="255.5" fill="#a1d45d" r="255.5"/><path d="m507.117 300.077c-46.907-46.907-96.447-96.444-96.271-96.268.334.334-93.323-30.834-92.63-30.834-.048-.047-31.479-31.473-31.145-31.139s-181.164 108.016-185.138 104.041c.313.313 10.131 10.134 10.193 10.198 0 0-9.88 113.166-10.116 112.93s89.579 89.584 141.711 141.715c3.905.177 7.83.28 11.779.28 125.902 0 230.528-91.067 251.617-210.923z" fill="#71a52c"/><g><g><path d="m245.746 118.398-20.508 13.555h-30.762-30.762l-20.508-13.555c-39.11 11.679-62.206 37.832-62.206 75.079 0 51.37 42.851 82.031 113.477 82.031s112.793-30.662 112.793-82.031c0-37.247-22.413-63.4-61.524-75.079z" fill="#eaad44"/><path d="m307.27 193.477c0-37.247-22.413-63.4-61.523-75.078l-20.508 13.555h-30.762v143.555c70.625-.001 112.793-30.663 112.793-82.032z" fill="#e58e40"/><path d="m194.477 111.445c-19.418 0-36.439 2.525-51.27 6.953v34.062h51.27 51.27v-34.062c-14.831-4.428-31.853-6.953-51.27-6.953z" fill="#f2d049"/><path d="m245.746 118.398c-14.83-4.429-31.852-6.953-51.27-6.953v41.016h51.27z" fill="#eaad44"/></g><g><path d="m368.793 179.922-20.508 13.555h-30.762-30.762l-20.508-13.555c-39.11 11.678-61.523 37.831-61.523 75.078 0 51.37 42.167 82.031 112.793 82.031s113.477-30.661 113.477-82.031c0-37.247-23.096-63.4-62.207-75.078z" fill="#f2d049"/><path d="m431 255c0-37.247-23.096-63.4-62.207-75.078l-20.508 13.555h-30.762v143.555c70.626-.001 113.477-30.662 113.477-82.032z" fill="#eaad44"/><path d="m317.523 172.969c-19.418 0-36.439 2.525-51.27 6.953v34.062h51.27 51.27v-34.062c-14.83-4.429-31.852-6.953-51.27-6.953z" fill="#f8e997"/><path d="m368.793 179.922c-14.83-4.429-31.852-6.953-51.27-6.953v41.016h51.27z" fill="#f2d049"/></g><g><path d="m245.746 241.445-20.508 13.555h-30.762-30.762l-20.508-13.555c-39.11 11.679-62.206 37.832-62.206 75.078 0 51.37 42.851 82.031 113.477 82.031s112.793-30.662 112.793-82.031c0-37.246-22.413-63.399-61.524-75.078z" fill="#eaad44"/><path d="m307.27 316.523c0-37.247-22.413-63.4-61.523-75.078l-20.509 13.555h-30.762v143.555c70.626 0 112.794-30.662 112.794-82.032z" fill="#e58e40"/><path d="m194.477 234.492c-19.418 0-36.439 2.525-51.27 6.953v34.062h51.27 51.27v-34.062c-14.831-4.428-31.853-6.953-51.27-6.953z" fill="#f2d049"/><path d="m245.746 241.445c-14.83-4.429-31.852-6.953-51.27-6.953v41.016h51.27z" fill="#eaad44"/></g></g></g></svg>