<svg height="512" viewBox="0 0 512 512" width="512" xmlns="http://www.w3.org/2000/svg"><g id="solid"><path d="m120 88h-17.664l-28.235 120h45.899z"/><path d="m115.882 328a36.118 36.118 0 1 0 36.118 36.118 36.158 36.158 0 0 0 -36.118-36.118z"/><path d="m183.008 380.119a8 8 0 0 1 -4.446-14.657l20.306-13.537a83.551 83.551 0 0 0 -19.2-42.188l-2.829 14.148a8 8 0 0 1 -15.69-3.139l4.781-23.9a83.429 83.429 0 0 0 -43.423-16.326l8.027 12.041a8 8 0 1 1 -13.312 8.876l-13.538-20.306a83.544 83.544 0 0 0 -42.186 19.2l14.147 2.829a8 8 0 0 1 -1.556 15.84 8.11 8.11 0 0 1 -1.578-.157l-23.9-4.781a83.428 83.428 0 0 0 -16.325 43.423l12.041-8.027a8 8 0 1 1 8.873 13.316l-20.3 13.538a83.568 83.568 0 0 0 19.2 42.187l2.829-14.147a8 8 0 1 1 15.689 3.136l-4.779 23.9a83.418 83.418 0 0 0 43.422 16.325l-8.027-12.041a8 8 0 1 1 13.312-8.875l13.529 20.303a83.559 83.559 0 0 0 42.188-19.2l-14.147-2.829a8 8 0 0 1 3.137-15.689l23.9 4.779a83.419 83.419 0 0 0 16.326-43.422l-12.041 8.027a7.959 7.959 0 0 1 -4.43 1.353zm-67.126 36.116a52.118 52.118 0 1 1 52.118-52.117 52.177 52.177 0 0 1 -52.118 52.117z"/><path d="m136 88h16v120h-16z"/><path d="m360 172.281 20.438-13.625a8 8 0 0 0 -8.876-13.312l-24 16a8 8 0 0 0 -3.562 6.656v169.047a73.251 73.251 0 0 1 16-11.008z"/><path d="m256 62a6.006 6.006 0 0 0 -6-6h-148a6.006 6.006 0 0 0 -6 6v10h160z"/><path d="m376 320.155a72.708 72.708 0 0 1 72 23.2v-64.773a30.617 30.617 0 0 0 -30.582-30.582h-41.418zm40-48.155a8 8 0 0 1 16 0v16a8 8 0 0 1 -16 0zm-24 0a8 8 0 0 1 16 0v16a8 8 0 0 1 -16 0z"/><path d="m94.948 256 6.215 9.322a99.881 99.881 0 0 1 113.892 110.678h27.658l-63.529-120z"/><path d="m268.8 212.4-3.724 2.793 11.239 16.857c.558-.031 1.119-.05 1.685-.05h15.247l-43.2-144h-82.047v120h32a8 8 0 0 1 7.087 4.288l40.913 78.112v-28.4a29.98 29.98 0 0 1 12.719-24.5l-8.462-12.693-7.457 5.593a8 8 0 0 1 -9.6-12.8l24-18a8 8 0 1 1 9.6 12.8z"/><path d="m264 320a8.262 8.262 0 0 1 -.046.852l3.746 7.148h28.3v-16h-32z"/><path d="m67.747 224-26.667 32h19.607l13.656-13.657a8 8 0 0 1 5.657-2.343h104a8 8 0 0 1 7.07 4.257l69.746 131.743h13.962l-79.619-152z"/><path d="m442.746 400.892a8 8 0 0 1 -4.575-14.569l10.4-7.232a56.708 56.708 0 0 0 -10.815-23.034l-.447 2.492a8 8 0 0 1 -15.748-2.828l2.232-12.437a56.54 56.54 0 0 0 -23.948-8.7l1.465 2.105a8 8 0 1 1 -13.135 9.137l-7.233-10.4a56.708 56.708 0 0 0 -23.034 10.815l2.492.447a8 8 0 1 1 -2.828 15.748l-12.436-2.233a56.518 56.518 0 0 0 -8.7 23.949l2.105-1.465a8 8 0 0 1 9.137 13.135l-10.4 7.233a56.709 56.709 0 0 0 10.822 23.039l.447-2.49a8 8 0 0 1 15.748 2.826l-2.232 12.437a56.513 56.513 0 0 0 23.949 8.7l-1.465-2.105a8 8 0 1 1 13.135-9.137l7.232 10.4a56.7 56.7 0 0 0 23.033-10.814l-2.49-.447a8 8 0 0 1 2.826-15.748l12.438 2.232a56.54 56.54 0 0 0 8.7-23.949l-2.105 1.465a7.963 7.963 0 0 1 -4.57 1.428zm-49.822 23.108a32.925 32.925 0 1 1 32.925-32.924 32.962 32.962 0 0 1 -32.925 32.924z"/><path d="m472 360h-13.122a72.3 72.3 0 0 1 5.394 16h7.728a8 8 0 0 0 0-16z"/><path d="m312 376h9.576a72.308 72.308 0 0 1 6.424-18.067v-109.933h-16z"/><path d="m392.924 374.151a16.925 16.925 0 1 0 16.925 16.925 16.944 16.944 0 0 0 -16.925-16.925z"/><path d="m292.841 376h3.159v-32h-19.921z"/><path d="m264 280h32v16h-32z"/><path d="m264 262v2h32v-16h-18a14.015 14.015 0 0 0 -14 14z"/></g></svg>