<svg viewBox="0 0 64 64" xmlns="http://www.w3.org/2000/svg">
    <path d="m15.793 61.948a6.012 6.012 0 0 1 -6.8-5.948l-.026-19.828h2l.026 19.653a4.126 4.126 0 0 0 3.607 4.156 4.009 4.009 0 0 0 4.4-3.981v-11a1 1 0 0 1 1-1h1v11.785a6.146 6.146 0 0 1 -5.207 6.163z" fill="#aa6100"/><path d="m9 7h2v24h-2z" fill="#aa6100"/><path d="m40 10h3v4h-3z" fill="#c0ab91"/><path d="m46 10h3v4h-3z" fill="#c0ab91"/><path d="m32 14h22v5h-22z" fill="#57565c"/><path d="m43 10h3v4h-3z" fill="#ffda44"/><path d="m37 10h3v4h-3z" fill="#ffda44"/><path d="m25 23h36v4h-36z" fill="#57565c"/><path d="m61 57v3a1 1 0 0 1 -1 1h-34a1 1 0 0 1 -1-1v-3z" fill="#d80027"/><path d="m25 53h36v4h-36z" fill="#57565c"/><path d="m25 27h36v26h-36z" fill="#d80027"/><path d="m61 20v3h-36v-3a1 1 0 0 1 1-1h34a1 1 0 0 1 1 1z" fill="#d80027"/><path d="m11 31v13h-6v-15a3 3 0 0 1 6 0z" fill="#ffda44"/><path d="m10.98 48.28a.019.019 0 0 1 0 .03 3 3 0 0 1 -5.98-.31v-4h5.98z" fill="#ff9811"/><path d="m9 30h2v2h-2z" fill="#bfa433"/><path d="m5 30h3v2h-3z" fill="#bfa433"/><path d="m21 44h4v7h-4z" fill="#898890"/><path d="m11 7a3.995 3.995 0 0 1 -4 4h-4v-8h4a4 4 0 0 1 4 4z" fill="#ff5023"/><path d="m5 8h2v3h-2z" fill="#ff734f"/><rect fill="#787680" height="2" rx="1" width="8" x="33" y="15"/><rect fill="#e03352" height="19" rx="2.5" width="5" x="29" y="30"/>
</svg>