<?xml version="1.0" encoding="iso-8859-1"?>
<!-- Generator: Adobe Illustrator 19.0.0, SVG Export Plug-In . SVG Version: 6.00 Build 0)  -->
<svg version="1.1" id="Capa_1" xmlns="http://www.w3.org/2000/svg" xmlns:xlink="http://www.w3.org/1999/xlink" x="0px" y="0px"
	 viewBox="0 0 512 512" style="enable-background:new 0 0 512 512;" xml:space="preserve">
<g>
	<path style="fill:#FFE477;" d="M334.759,18.905C322.415,6.559,304.633,0.033,283.341,0.033c-31.792,0-67.583,14.432-89.062,35.91
		c-16.332,16.332-28.977,41.56-33.831,67.482c-5.714,30.535,0.249,56.46,16.792,73.001c12.345,12.346,30.126,18.873,51.419,18.873
		c31.793,0,67.584-14.431,89.064-35.909c16.33-16.332,28.976-41.559,33.829-67.483C357.266,61.371,351.302,35.446,334.759,18.905z"
		/>
	<path style="fill:#FFE477;" d="M509.886,387.967c-4.852-25.925-17.499-51.151-33.83-67.483
		c-21.479-21.479-57.271-35.911-89.064-35.911c-21.293,0-39.073,6.526-51.418,18.873c-16.542,16.543-22.505,42.468-16.791,73.001
		c4.852,25.925,17.499,51.152,33.829,67.481c21.477,21.479,57.27,35.911,89.065,35.911c21.293,0,39.073-6.524,51.42-18.871
		C509.638,444.425,515.601,418.5,509.886,387.967z"/>
	<path style="fill:#FFE477;" d="M210.344,380.292c-6.378-15.398-19.442-27.859-37.779-36.036c-15.024-6.698-33.599-10.39-52.3-10.39
		c-16.968,0-32.955,2.908-46.231,8.407c-21.338,8.839-42.677,27.306-57.081,49.4c-16.966,26.024-21.377,52.257-12.421,73.87
		c6.379,15.398,19.443,27.859,37.779,36.036c15.023,6.698,33.598,10.388,52.3,10.388c16.968,0,32.954-2.906,46.231-8.405
		c21.337-8.841,42.675-27.308,57.078-49.4C214.885,428.14,219.297,401.905,210.344,380.292z"/>
</g>
<g>
	<path style="fill:#FFB655;" d="M334.759,18.905l-157.52,157.522c12.346,12.345,30.127,18.872,51.419,18.872
		c31.793,0,67.584-14.431,89.064-35.909c16.33-16.332,28.976-41.559,33.829-67.483C357.266,61.371,351.302,35.446,334.759,18.905
		L334.759,18.905z"/>
	<path style="fill:#FFB655;" d="M509.886,387.967c-4.852-25.925-17.499-51.151-33.83-67.483
		c-21.479-21.479-57.271-35.911-89.064-35.911c-21.293,0-39.073,6.526-51.418,18.873l157.523,157.523
		C509.638,444.425,515.601,418.5,509.886,387.967z"/>
	<path style="fill:#FFB655;" d="M42.31,501.58c15.023,6.698,33.598,10.388,52.3,10.388c16.968,0,32.954-2.906,46.231-8.405
		c21.337-8.841,42.675-27.308,57.078-49.4c16.965-26.022,21.377-52.257,12.424-73.87l0,0L4.531,465.543
		C10.91,480.942,23.974,493.403,42.31,501.58z"/>
</g>
<g>
</g>
<g>
</g>
<g>
</g>
<g>
</g>
<g>
</g>
<g>
</g>
<g>
</g>
<g>
</g>
<g>
</g>
<g>
</g>
<g>
</g>
<g>
</g>
<g>
</g>
<g>
</g>
<g>
</g>
</svg>
