<svg id="Solid" enable-background="new 0 0 512 512" viewBox="0 0 512 512" xmlns="http://www.w3.org/2000/svg"><path d="m376 360c-.1 4.4 3.2 8.1 7.6 8.4 4.4.2 8.2-3.2 8.4-7.6 0-.1 0-.3 0-.4v-120.4h-16z"/><path d="m376 208h16v16h-16z"/><path d="m328.5 384.5c2.5-.4 5-.5 7.5-.5 16.6-.1 32.3 7.7 42.2 21h1.6c15.2 0 29.7 6.6 39.7 18l26.9-51.9c2.2-4.3 2.1-9.5-.5-13.7-1-1.6-3.8-5.4-9-5.4h-29v8.5c0 6.6-2.7 12.8-7.4 17.4-4.4 4.3-10.4 6.7-16.5 6.6-.4 0-.8 0-1.2 0-12.9-.7-23-11.5-22.9-24.4v-8h-29c-5.2 0-8 3.8-9 5.4-2.5 4.2-2.7 9.4-.5 13.7z"/><path d="m368 112c4.4 0 8 3.6 8 8v72h16v-72c0-4.4 3.6-8 8-8h18.6l13.4-33.5v-38.5c0-4.4-3.6-8-8-8h-80c-4.4 0-8 3.6-8 8v38.5l13.4 33.5zm-16-56c0-4.4 3.6-8 8-8h48c4.4 0 8 3.6 8 8v32c0 4.4-3.6 8-8 8h-48c-4.4 0-8-3.6-8-8z"/><path d="m431 456c-2.2 0-4.3.2-6.4.6-4.4.8-8.5-2.2-9.3-6.5v-.1c-2.6-16.5-17.8-28.9-35.4-28.9-1.6 0-3.1.1-4.7.3-3.2.4-6.3-1.1-7.9-3.9-10.7-17.3-33.3-22.6-50.6-11.9-4.8 3-8.9 7.1-11.9 11.9-1.6 2.7-4.7 4.3-7.9 3.9-1.6-.2-3.1-.3-4.7-.3-17.6 0-32.8 12.4-35.4 28.9-.7 4.4-4.8 7.3-9.2 6.7h-.1c-2.1-.4-4.3-.6-6.4-.6-16.4 0-34.5 9.8-39.6 24h269.2c-5.2-14.3-23.3-24.1-39.7-24.1z"/><path d="m280 304c0-8.8-7.2-16-16-16h-208c-8.8 0-16 7.2-16 16s7.2 16 16 16h208c8.8 0 16-7.2 16-16z"/><path d="m239.9 440 17.3-104h-194.4l22.9 137.3c.6 3.9 4 6.7 7.9 6.7h91.3c2.1-10.5 8.5-20 18.5-27.4 10.5-7.8 23.3-12.2 36.5-12.6z"/><path d="m134.1 232h8.8l-29.1-34.9c-2.8-3.4-2.4-8.4 1-11.3 1.4-1.2 3.2-1.9 5.1-1.9 2.4 0 4.6 1.1 6.1 2.9l25.8 31v54.2h16v-54.1l25.8-31c2.8-3.4 7.8-4 11.2-1.2s4 7.8 1.2 11.2c-.1.1-.1.2-.2.2l-28.7 34.9h8.8c25.4 0 46.1-20.6 46.1-46.1v-33.9h-17.9c-25.4 0-46.1 20.6-46.1 46.1v-78.1h-16v78.1c0-25.4-20.6-46.1-46.1-46.1h-17.9v33.9c0 25.5 20.6 46.1 46.1 46.1z"/><path d="m193.8 66.9c2.8-3.5 7.8-4 11.3-1.3 3.4 2.8 4 7.8 1.2 11.2-.1.1-.1.2-.2.2l-29 35h8.8c25.4 0 46.1-20.6 46.1-46.1v-33.9h-17.9c-25.5 0-46.1 20.6-46.1 46.1v19.8z"/><path d="m134.1 112h8.8l-29.1-34.9c-2.8-3.4-2.4-8.4 1-11.3 1.4-1.2 3.2-1.9 5.1-1.9 2.4 0 4.6 1.1 6.1 2.9l25.8 31v-19.7c0-25.4-20.6-46.1-46.1-46.1h-17.7v33.9c0 25.5 20.6 46.1 46.1 46.1z"/></svg>