<?xml version="1.0" standalone="no"?>
<!DOCTYPE svg PUBLIC "-//W3C//DTD SVG 20010904//EN"
 "http://www.w3.org/TR/2001/REC-SVG-20010904/DTD/svg10.dtd">
<svg version="1.0" xmlns="http://www.w3.org/2000/svg"
 width="267.000000pt" height="267.000000pt" viewBox="0 0 267.000000 267.000000"
 preserveAspectRatio="xMidYMid meet">
<metadata>
Created by potrace 1.11, written by Peter Selinger 2001-2013
</metadata>
<g transform="translate(0.000000,267.000000) scale(0.100000,-0.100000)"
fill="#000000" stroke="none">
<path d="M2515 1720 c4 -6 11 -8 16 -5 5 4 9 -10 9 -30 0 -20 4 -34 9 -31 4 3
7 17 6 31 -2 17 2 25 11 25 9 0 12 5 9 10 -3 6 -20 10 -36 10 -18 0 -28 -4
-24 -10z"/>
<path d="M2588 1713 c-2 -10 -1 -29 3 -43 7 -24 7 -24 8 5 1 27 2 28 18 13 15
-16 17 -16 29 0 11 15 12 14 10 -10 -2 -16 1 -28 5 -28 5 0 9 18 9 40 0 46 -5
49 -30 18 l-17 -22 -7 22 c-9 26 -22 29 -28 5z"/>
<path d="M790 1690 c-14 -10 -49 -25 -78 -34 -108 -31 -147 -73 -151 -158 l-2
-33 -15 27 c-17 33 -54 54 -109 62 -22 4 -52 15 -67 26 -32 24 -35 19 -11 -21
11 -18 36 -37 69 -50 l52 -22 -31 -21 c-26 -17 -36 -36 -55 -96 -63 -210 -76
-244 -108 -292 -20 -29 -41 -56 -47 -60 -7 -4 -21 -13 -32 -22 -19 -14 -16
-15 30 -10 68 8 128 36 153 71 20 28 23 29 98 28 71 -1 78 -3 96 -28 11 -15
29 -32 41 -39 28 -15 115 -37 121 -31 2 3 -8 18 -24 33 -51 50 -138 255 -156
368 -12 78 40 149 148 201 51 24 94 63 104 93 8 27 3 29 -26 8z m-256 -508
c-5 -7 -81 -10 -91 -4 -5 4 1 38 16 87 l25 80 26 -80 c14 -44 25 -82 24 -83z"/>
<path d="M721 1470 c-115 -38 -140 -139 -54 -217 19 -17 68 -44 109 -59 99
-36 119 -72 68 -119 -35 -32 -81 -32 -128 0 l-36 25 15 -30 c29 -57 97 -87
182 -81 34 2 91 58 104 101 25 82 -15 133 -142 186 -96 40 -118 60 -97 93 26
42 112 34 123 -12 6 -21 12 -23 66 -23 l59 1 -4 28 c-15 96 -144 148 -265 107z"/>
<path d="M2 1438 l3 -43 72 -3 71 -3 1 -182 c0 -100 1 -190 1 -200 0 -22 29
-16 72 16 39 29 44 55 43 218 l0 147 45 4 c37 4 54 13 88 46 l43 42 -221 0
-221 0 3 -42z"/>
<path d="M1487 1337 c-45 -50 -108 -145 -86 -131 6 3 5 -3 -2 -14 -11 -17 -10
-27 6 -62 10 -23 28 -48 39 -56 11 -8 16 -14 10 -14 -12 0 -59 49 -67 70 -5
13 -6 12 -6 -1 -2 -38 77 -100 126 -99 12 1 9 5 -12 15 l-30 14 30 -6 c17 -3
32 -9 35 -14 9 -13 58 3 91 31 27 22 33 35 34 66 0 22 -6 45 -12 52 -16 17
-17 46 -1 36 7 -5 8 -3 4 5 -5 7 -10 10 -14 7 -3 -3 -20 3 -38 14 -20 13 -35
17 -39 10 -3 -5 1 -10 10 -10 15 0 45 -22 45 -33 0 -3 -10 -3 -22 -1 l-23 5
22 -12 c37 -20 36 -49 -4 -85 -20 -19 -39 -31 -42 -28 -3 3 -6 27 -6 52 0 34
-4 46 -13 44 -9 -2 -13 6 -11 20 2 13 -2 33 -9 44 -9 18 -8 25 9 40 12 11 23
18 25 17 2 -2 6 4 8 12 2 8 2 15 0 15 -12 0 -98 -88 -105 -109 -5 -13 -12 -21
-16 -18 -8 9 22 52 63 89 32 29 60 75 52 84 -2 1 -25 -21 -51 -49z m146 -241
c-10 -14 -24 -27 -31 -30 -7 -3 0 10 15 29 31 39 45 40 16 1z"/>
<path d="M1944 1341 c-9 -23 -24 -56 -33 -74 -17 -33 -16 -33 6 -33 17 0 20 3
11 13 -8 10 -8 17 -1 24 17 17 48 6 47 -16 0 -15 7 -21 26 -21 l27 -2 -30 72
c-16 39 -31 73 -33 75 -2 2 -11 -15 -20 -38z m15 -50 c-15 -5 -22 6 -14 19 6
9 10 9 16 -1 5 -8 4 -15 -2 -18z"/>
<path d="M2475 1306 c-27 -63 -29 -72 -14 -73 12 -1 15 4 12 18 -3 11 1 21 10
25 9 3 13 13 10 25 -3 10 -3 19 1 19 9 0 37 -71 31 -80 -2 -4 7 -7 20 -7 14 0
25 0 25 2 0 7 -53 131 -58 137 -4 3 -21 -26 -37 -66z"/>
<path d="M1729 1361 c10 -6 12 -25 9 -68 -4 -56 -3 -60 16 -59 17 1 20 7 18
29 -4 35 3 34 35 -3 13 -16 34 -30 44 -30 18 0 18 2 -6 27 -28 32 -29 36 -13
62 22 35 4 51 -59 51 -37 0 -53 -3 -44 -9z m76 -26 c0 -11 -8 -21 -17 -23 -14
-3 -18 3 -18 23 0 20 4 26 18 23 9 -2 17 -12 17 -23z"/>
<path d="M2068 1353 c11 -22 6 -91 -7 -107 -7 -9 -3 -12 13 -12 13 0 22 5 20
11 -9 26 -12 65 -5 65 4 0 16 -18 26 -40 10 -22 21 -40 24 -40 4 0 15 19 26
43 19 41 19 41 23 14 2 -16 -1 -34 -7 -40 -7 -10 -2 -13 24 -13 27 0 32 3 25
16 -4 8 -6 39 -5 68 4 67 -15 70 -46 7 -25 -50 -39 -48 -61 11 -9 25 -18 34
-35 34 -19 0 -22 -3 -15 -17z"/>
<path d="M2276 1359 c11 -18 13 -91 3 -110 -6 -12 -2 -15 20 -15 27 0 28 2 20
28 -10 36 -1 35 35 -2 16 -17 37 -30 47 -30 14 0 11 6 -12 31 -28 30 -29 33
-12 51 28 31 6 52 -56 56 -40 2 -51 0 -45 -9z m74 -24 c0 -18 -5 -25 -19 -25
-14 0 -17 6 -13 25 2 14 11 25 18 25 8 0 14 -10 14 -25z"/>
<path d="M2608 1361 c19 -12 14 -142 -6 -157 -8 -6 -11 -14 -6 -17 5 -3 20 2
32 12 20 15 23 27 25 94 l2 77 -30 0 c-20 0 -26 -3 -17 -9z"/>
<path d="M1185 1288 c1 -41 30 -52 37 -13 4 17 1 25 -8 25 -8 0 -14 5 -14 10
0 6 -4 10 -8 10 -4 0 -7 -15 -7 -32z"/>
<path d="M1243 1288 c-10 -17 -12 -59 -3 -53 7 4 20 65 14 65 -2 0 -6 -6 -11
-12z"/>
<path d="M1510 1279 c0 -5 5 -7 10 -4 6 3 10 8 10 11 0 2 -4 4 -10 4 -5 0 -10
-5 -10 -11z"/>
<path d="M1758 1172 c-39 -8 -30 -64 13 -77 10 -4 19 -13 19 -21 0 -17 -31
-19 -48 -2 -9 9 -12 9 -12 -3 0 -20 54 -23 74 -4 20 20 13 37 -24 59 -34 20
-30 41 6 32 13 -4 24 -2 24 3 0 11 -29 18 -52 13z"/>
<path d="M1852 1171 c-4 -4 -7 -31 -7 -62 0 -45 3 -56 15 -54 8 1 15 11 15 21
0 10 4 25 8 32 5 7 4 12 -2 12 -5 0 -9 9 -8 21 1 17 7 20 29 17 15 -3 28 -1
28 3 0 9 -67 17 -78 10z"/>
<path d="M1992 1172 c-20 -2 -30 -7 -26 -14 4 -6 8 -32 8 -57 1 -33 5 -47 17
-49 12 -2 15 4 11 30 l-5 33 27 -32 c15 -18 35 -33 44 -33 12 0 11 5 -7 24
-19 20 -21 28 -12 44 6 12 11 25 11 31 0 16 -32 27 -68 23z m38 -32 c0 -11 -7
-20 -15 -20 -8 0 -15 9 -15 20 0 11 7 20 15 20 8 0 15 -9 15 -20z"/>
<path d="M2203 1173 c-7 -3 -13 -11 -13 -18 0 -19 -22 -65 -30 -65 -9 0 -36
61 -32 73 1 4 -9 7 -21 7 l-24 0 29 -57 c16 -31 30 -59 32 -61 2 -2 21 24 41
59 37 63 39 69 18 62z"/>
<path d="M2352 1164 c-40 -16 -50 -49 -25 -83 25 -33 87 -42 97 -14 6 14 5 16
-5 6 -38 -38 -95 18 -69 67 9 17 19 21 41 18 36 -6 49 8 15 14 -13 3 -38 -1
-54 -8z"/>
<path d="M2254 1110 c-1 -42 3 -60 12 -60 8 0 13 20 16 60 2 48 0 60 -12 60
-12 0 -15 -14 -16 -60z"/>
<path d="M2455 1110 c0 -50 3 -60 18 -60 14 0 17 9 17 56 l0 56 30 -4 c17 -3
30 -1 30 4 0 4 -21 8 -47 8 l-48 0 0 -60z"/>
<path d="M2585 1150 c-7 -24 7 -46 36 -55 23 -8 26 -35 3 -35 -8 0 -24 5 -34
10 -15 8 -18 7 -15 -3 6 -15 54 -20 74 -8 19 13 7 54 -20 66 -13 6 -25 16 -27
24 -4 11 2 13 27 8 20 -4 30 -3 26 3 -3 6 -19 10 -35 10 -20 0 -31 -6 -35 -20z"/>
<path d="M1900 1116 c0 -2 6 -9 13 -15 10 -8 14 -7 14 4 0 8 -6 15 -14 15 -7
0 -13 -2 -13 -4z"/>
<path d="M2520 1110 c0 -5 5 -10 10 -10 6 0 10 5 10 10 0 6 -4 10 -10 10 -5 0
-10 -4 -10 -10z"/>
<path d="M1910 1064 l-25 -14 28 0 c17 0 27 5 27 15 0 8 -1 15 -2 14 -2 -1
-14 -7 -28 -15z"/>
<path d="M2540 1071 c0 -5 -8 -12 -17 -14 -14 -4 -12 -5 5 -6 13 -1 22 5 22
14 0 8 -2 15 -5 15 -3 0 -5 -4 -5 -9z"/>
</g>
</svg>
